PathFileType	4	(X/Y/Z)	C:/Users/Carlo/Dropbox/Carlos/SARAH/CongressoMarcha2025/WorkshopOpenSim/C3D/Caso02/Walking03.c3d.trc
DataRate	CameraRate	NumFrames	NumMarkers	Units	OrigDataRate	OrigDataStartFrame	OrigNumFrames
100.000000	100.000000	2	197	mm	100.000000	200	400
Frame#	Time	PELO			PELA			PELL			PELP			LFEO			LFEA			LFEL			LFEP			LTIO			LTIA			LTIL			LTIP			LFOO			LFOA			LFOL			LFOP			RFEO			RFEA			RFEL			RFEP			RTIO			RTIA			RTIL			RTIP			RFOO			RFOA			RFOL			RFOP			LTOO			LTOA			LTOL			LTOP			RTOO			RTOA			RTOL			RTOP			HEDO			HEDA			HEDL			HEDP			LCLO			LCLA			LCLL			LCLP			RCLO			RCLA			RCLL			RCLP			TRXO			TRXA			TRXL			TRXP			LHUO			LHUA			LHUL			LHUP			LRAO			LRAA			LRAL			LRAP			LHNO			LHNA			LHNL			LHNP			RHUO			RHUA			RHUL			RHUP			RRAO			RRAA			RRAL			RRAP			RHNO			RHNA			RHNL			RHNP			LFHD			RFHD			RBHD			LSHO			LUPA			LELB			LFRM			LWRA			LWRB			LFIN			RSHO			RUPA			RELB			RFRM			RWRA			RWRB			RFIN			LTHI			LKNE			LTIB			LANK			LTOE			RKNE			RTIB			RANK			LASI			LHEE			LBHD			RTHI			RHEE			RTOE			STRN			RASI			CLAV			RPSI			C7			LPSI			RBAK			T10			LHipAngles			LKneeAngles			LAbsAnkleAngle			LAnkleAngles			RHipAngles			RKneeAngles			RAnkleAngles			RAbsAnkleAngle			LPelvisAngles			RPelvisAngles			LFootProgressAngles			RFootProgressAngles			RNeckAngles			LNeckAngles			RSpineAngles			LSpineAngles			LShoulderAngles			LElbowAngles			LWristAngles			RShoulderAngles			RElbowAngles			RWristAngles			RThoraxAngles			LThoraxAngles			RHeadAngles			LHeadAngles			LHipPower			LKneePower			LAnklePower			RHipPower			RKneePower			RAnklePower			LWaistPower			RWaistPower			LNeckPower			RNeckPower			LShoulderPower			RShoulderPower			LElbowPower			RElbowPower			LWristPower			RWristPower			LGroundReactionForce			LNormalisedGRF			RGroundReactionForce			RNormalisedGRF			LAnkleForce			RAnkleForce			RKneeForce			LKneeForce			RHipForce			LHipForce			LWaistForce			RWaistForce			LNeckForce			RNeckForce			LShoulderForce			RShoulderForce			LElbowForce			RElbowForce			LWristForce			RWristForce			LGroundReactionMoment			RGroundReactionMoment			LAnkleMoment			RAnkleMoment			RKneeMoment			LKneeMoment			RHipMoment			LHipMoment			LWaistMoment			RWaistMoment			LNeckMoment			RNeckMoment			LShoulderMoment			RShoulderMoment			LElbowMoment			RElbowMoment			LWristMoment			RWristMoment			CentreOfMass			CentreOfMassFloor			
		X1	Y1	Z1	X2	Y2	Z2	X3	Y3	Z3	X4	Y4	Z4	X5	Y5	Z5	X6	Y6	Z6	X7	Y7	Z7	X8	Y8	Z8	X9	Y9	Z9	X10	Y10	Z10	X11	Y11	Z11	X12	Y12	Z12	X13	Y13	Z13	X14	Y14	Z14	X15	Y15	Z15	X16	Y16	Z16	X17	Y17	Z17	X18	Y18	Z18	X19	Y19	Z19	X20	Y20	Z20	X21	Y21	Z21	X22	Y22	Z22	X23	Y23	Z23	X24	Y24	Z24	X25	Y25	Z25	X26	Y26	Z26	X27	Y27	Z27	X28	Y28	Z28	X29	Y29	Z29	X30	Y30	Z30	X31	Y31	Z31	X32	Y32	Z32	X33	Y33	Z33	X34	Y34	Z34	X35	Y35	Z35	X36	Y36	Z36	X37	Y37	Z37	X38	Y38	Z38	X39	Y39	Z39	X40	Y40	Z40	X41	Y41	Z41	X42	Y42	Z42	X43	Y43	Z43	X44	Y44	Z44	X45	Y45	Z45	X46	Y46	Z46	X47	Y47	Z47	X48	Y48	Z48	X49	Y49	Z49	X50	Y50	Z50	X51	Y51	Z51	X52	Y52	Z52	X53	Y53	Z53	X54	Y54	Z54	X55	Y55	Z55	X56	Y56	Z56	X57	Y57	Z57	X58	Y58	Z58	X59	Y59	Z59	X60	Y60	Z60	X61	Y61	Z61	X62	Y62	Z62	X63	Y63	Z63	X64	Y64	Z64	X65	Y65	Z65	X66	Y66	Z66	X67	Y67	Z67	X68	Y68	Z68	X69	Y69	Z69	X70	Y70	Z70	X71	Y71	Z71	X72	Y72	Z72	X73	Y73	Z73	X74	Y74	Z74	X75	Y75	Z75	X76	Y76	Z76	X77	Y77	Z77	X78	Y78	Z78	X79	Y79	Z79	X80	Y80	Z80	X81	Y81	Z81	X82	Y82	Z82	X83	Y83	Z83	X84	Y84	Z84	X85	Y85	Z85	X86	Y86	Z86	X87	Y87	Z87	X88	Y88	Z88	X89	Y89	Z89	X90	Y90	Z90	X91	Y91	Z91	X92	Y92	Z92	X93	Y93	Z93	X94	Y94	Z94	X95	Y95	Z95	X96	Y96	Z96	X97	Y97	Z97	X98	Y98	Z98	X99	Y99	Z99	X100	Y100	Z100	X101	Y101	Z101	X102	Y102	Z102	X103	Y103	Z103	X104	Y104	Z104	X105	Y105	Z105	X106	Y106	Z106	X107	Y107	Z107	X108	Y108	Z108	X109	Y109	Z109	X110	Y110	Z110	X111	Y111	Z111	X112	Y112	Z112	X113	Y113	Z113	X114	Y114	Z114	X115	Y115	Z115	X116	Y116	Z116	X117	Y117	Z117	X118	Y118	Z118	X119	Y119	Z119	X120	Y120	Z120	X121	Y121	Z121	X122	Y122	Z122	X123	Y123	Z123	X124	Y124	Z124	X125	Y125	Z125	X126	Y126	Z126	X127	Y127	Z127	X128	Y128	Z128	X129	Y129	Z129	X130	Y130	Z130	X131	Y131	Z131	X132	Y132	Z132	X133	Y133	Z133	X134	Y134	Z134	X135	Y135	Z135	X136	Y136	Z136	X137	Y137	Z137	X138	Y138	Z138	X139	Y139	Z139	X140	Y140	Z140	X141	Y141	Z141	X142	Y142	Z142	X143	Y143	Z143	X144	Y144	Z144	X145	Y145	Z145	X146	Y146	Z146	X147	Y147	Z147	X148	Y148	Z148	X149	Y149	Z149	X150	Y150	Z150	X151	Y151	Z151	X152	Y152	Z152	X153	Y153	Z153	X154	Y154	Z154	X155	Y155	Z155	X156	Y156	Z156	X157	Y157	Z157	X158	Y158	Z158	X159	Y159	Z159	X160	Y160	Z160	X161	Y161	Z161	X162	Y162	Z162	X163	Y163	Z163	X164	Y164	Z164	X165	Y165	Z165	X166	Y166	Z166	X167	Y167	Z167	X168	Y168	Z168	X169	Y169	Z169	X170	Y170	Z170	X171	Y171	Z171	X172	Y172	Z172	X173	Y173	Z173	X174	Y174	Z174	X175	Y175	Z175	X176	Y176	Z176	X177	Y177	Z177	X178	Y178	Z178	X179	Y179	Z179	X180	Y180	Z180	X181	Y181	Z181	X182	Y182	Z182	X183	Y183	Z183	X184	Y184	Z184	X185	Y185	Z185	X186	Y186	Z186	X187	Y187	Z187	X188	Y188	Z188	X189	Y189	Z189	X190	Y190	Z190	X191	Y191	Z191	X192	Y192	Z192	X193	Y193	Z193	X194	Y194	Z194	X195	Y195	Z195	X196	Y196	Z196	X197	Y197	Z197	

201	2	747.8226318359377	903.2046508789067	280.510223388672	876.554565429688	909.6098022460942	263.7291259765626	731.1961669921877	899.7485351562505	151.6453094482422	741.0261840820315	1032.979736328125	277.9066162109376	703.6240234375002	491.869812011719	161.2702026367188	1111.301513671875	448.497009277344	222.6452026367189	769.977172851563	540.6292724609377	-245.0165100097657	738.9135742187502	901.2478027343755	216.1640014648439	396.1365051269534	214.9802703857423	175.8509826660157	654.5134887695315	-74.98634338378909	118.1738739013672	347.3534240722657	248.7152862548829	-212.2831420898439	687.7312011718752	477.5584106445315	162.0237731933594	395.7664184570315	82.14115905761722	177.0019683837891	578.346130371094	98.25014495849615	148.2074890136719	368.5877075195314	63.76752471923831	-5.611557006835939	377.0597534179689	266.0620117187501	161.2809448242188	872.257934570313	506.3248291015627	322.4631347656251	1219.271362304688	618.0711669921877	122.4309539794922	674.3847656250002	469.4394531250002	-41.41052246093751	756.7316894531252	905.161499023438	344.8563842773439	837.1457519531255	81.35564422607425	330.1092224121095	1201.8037109375	48.10948562622073	156.864486694336	663.9210205078127	89.08115386962893	-35.98922729492189	870.4961547851567	485.001159667969	322.8468322753907	971.7529296875005	70.40858459472659	344.0591735839845	971.3937377929692	259.3522338867189	328.0268554687501	972.6433715820317	54.37808227539065	155.1171569824219	782.132446289063	69.97541809082034	343.2023315429689	402.0019531250002	20.83420944213868	182.2423095703126	462.8618469238284	26.20385169982912	172.6441650390626	392.9423828125002	14.70965576171876	121.3711318969727	395.7664184570315	82.14116668701175	177.0019531250001	1034.959838867188	70.55299377441409	344.3447570800782	1034.840087890625	133.5341949462891	339.0006103515626	1035.256591796875	65.2094650268555	281.3640747070314	971.7529907226567	70.40859222412112	344.0592041015626	728.8672485351565	1619.659423828126	304.9211730957032	944.4624023437505	1548.061889648438	289.5759887695314	718.5574951171877	1637.218872070313	78.14306640625003	801.3612670898442	1835.085449218751	318.3059082031251	706.389099121094	1383.970458984375	102.5090942382813	904.1293334960942	1372.445068359375	8.860176086425785	702.650573730469	1600.300537109376	67.99125671386722	800.670532226563	1416.721435546875	297.5541381835939	729.5163574218752	1362.3525390625	496.2136230468752	935.474731445313	1341.88037109375	564.3791503906252	727.8601684570315	1152.330200195313	438.141784667969	800.6704711914067	1416.721435546875	297.5540771484376	800.670532226563	1416.721313476563	297.5541381835939	1018.028869628907	1397.025024414063	287.0000000000001	810.3872070312505	1407.0947265625	515.629577636719	780.5479125976567	1199.319946289063	288.8539428710939	648.5071411132815	1102.219482421875	49.35572433471683	362.3143920898439	1162.283447265625	42.62631225585939	631.1104736328127	1051.544921875	336.9121398925782	706.3891601562502	1383.970703125	102.5090332031251	762.0056762695315	851.5636596679692	12.05039405822755	526.8291625976565	749.8591918945315	-20.10028266906739	746.647155761719	806.826049804688	265.9167480468751	656.4519653320315	1084.673461914063	46.74436187744142	818.6286621093755	703.341979980469	-30.82278060913087	868.159545898438	764.0545654296877	-175.3032531738282	672.497009277344	666.4876098632815	-96.40644836425787	762.0057373046877	851.5636596679692	12.05041122436524	643.454772949219	1087.53076171875	543.493835449219	371.6477966308595	1181.2587890625	593.5443115234377	705.7718505859377	1116.806274414063	827.093139648438	729.516296386719	1362.3525390625	496.2135925292971	717.8912353515627	823.0482788085942	554.4395141601565	477.844665527344	757.9501953125002	613.9063110351565	772.497436523438	848.7013549804692	802.9479980468755	648.6654052734377	1069.016967773438	544.2600097656252	735.8547363281252	664.4050903320315	561.9519653320315	821.3073730468755	680.4322509765627	696.0704345703127	869.727661132813	675.462097167969	475.3345031738284	717.8911132812502	823.0482788085942	554.4394531250002	932.732299804688	1629.487792968751	232.4628448486329	930.6983032226567	1618.802490234376	359.6305541992189	797.9415893554692	1665.885864257813	376.6897888183595	705.3994140625002	1441.237548828125	93.37150573730472	697.713806152344	1275.866455078125	39.16589736938478	669.3059082031252	1105.133178710938	11.26151466369629	709.255554199219	981.9587402343755	-15.24759387969971	797.3307495117192	866.8117675781255	22.62281227111817	731.313171386719	840.6609497070317	-10.99827384948731	798.0335083007817	786.733276367188	-31.27980041503908	729.957214355469	1418.253173828125	511.670349121094	700.493835449219	1202.67431640625	568.3687744140627	670.4757080078127	1084.91650390625	577.4832763671877	727.8035278320315	948.548461914063	580.9995117187502	754.2513427734377	826.1489868164067	539.1951904296877	688.835388183594	822.8533325195317	581.2683105468752	740.3005371093752	746.2386474609377	579.133483886719	740.009460449219	725.485046386719	84.67539978027347	713.3076782226565	498.9858398437502	101.9756927490235	555.2867431640627	372.2968750000001	97.90369415283209	390.5455017089846	218.8466033935548	131.3673553466797	374.813446044922	73.43288421630862	189.0776519775391	901.0466308593755	511.6913146972659	375.403289794922	879.7331542968755	261.6760559082032	385.1463012695315	856.388793945313	80.49743652343753	370.7781677246095	777.276245117188	1002.547729492188	164.0638580322266	354.047576904297	257.6090393066407	178.9551239013672	783.0689086914067	1676.194091796876	235.5050506591798	877.3457031250005	659.8081665039065	417.0314941406252	791.5440063476567	44.27540588378908	325.9722290039064	993.0000000000005	45.43680572509767	330.939178466797	847.228881835938	1243.349975585938	286.0916442871095	805.1720581054692	1008.346374511719	380.2727661132814	807.6337890625005	1416.09033203125	297.2160034179689	612.9688110351565	993.2048950195317	370.504852294922	672.5012207031252	1498.447875976563	305.137664794922	596.338317871094	999.367553710938	234.6451263427736	580.7842407226565	1327.392944335938	350.9598388671876	592.3599853515627	1233.1328125	298.731414794922	-9.696621894836429	15.88512325286866	-6.751222610473636	13.41741943359376	-9.612956047058109	42.34139633178712	0	0	-36.23028945922853	-2.250160932540894	10.45464515686036	-36.94225311279298	2.484849691390992	21.30698966979981	13.5952844619751	6.423399448394779	-2.701823234558106	20.32105064392091	6.123660087585453	-25.57293701171876	5.37669610977173	0	0	4.848618507385256	-1.14777672290802	-7.4194450378418	-2.997891426086427	1.14777672290802	7.4194450378418	-2.997891426086427	8.960615158081058	4.860650539398195	-5.80759906768799	-4.850124359130861	-0.2589018046855928	-90.13091278076175	1.885543704032899	-0.2227619439363481	13.20710754394532	-1.885543704032899	0.2227619439363481	13.20710754394532	3.8017635345459	5.00104331970215	8.126422882080082	-3.8017635345459	-5.00104331970215	8.126422882080082	8.539260864257816	5.24998712539673	-5.810697078704836	-3.180554718589512e-15	-1.320725321642125e-12	35.60561370849611	6.932102203369144	107.6236190795899	-4.269671440124513	11.22564220428467	9.220005989074711	-12.49118995666505	-7.95138679647378e-16	2.943603260446849e-12	33.65599822998048	-1.712999105453492	109.9370346069337	-9.100534439086918	-2.281962156295777	2.770751714706422	5.28819513320923	2.281962156295777	-2.770751714706422	5.28819513320923	-3.370061635971071	3.871064662933351	-18.59885978698731	3.370061635971071	-3.871064662933351	-18.59885978698731	0	1.813473224639893	0	0	-0.8415056467056279	0	0	0.4260518252849581	0	nan	nan	nan	nan	nan	nan	nan	nan	nan	nan	nan	nan	nan	nan	nan	nan	nan	nan	nan	nan	nan	0	-0.009870874695479873	0	0	-0.01347111072391272	0	0	-0.03359053283929826	0	0	0.006285329349339012	0	0	-0.0009527859510853891	0	0	0.001591126434504987	0	nan	nan	nan	nan	nan	nan	nan	nan	nan	nan	nan	nan	-0.0285001900047064	0.07583389431238177	-0.4504981935024264	nan	nan	nan	nan	nan	nan	-0.1446250677108765	0.689283609390259	0.3882228434085848	nan	nan	nan	0.3577663302421571	1.467324018478394	0.7102786898612978	nan	nan	nan	nan	nan	nan	nan	nan	nan	nan	nan	nan	-0.139936774969101	0.5216610431671145	0.2444113641977311	0.006209035869687799	0.6358390450477602	0.2353575229644777	-0.06951011717319491	0.247367560863495	-0.08743824064731601	0.0121053783223033	0.2992302775382997	-0.1098575666546822	-0.02090174145996571	0.07123988866806033	0.03022124618291856	0.0267497915774584	0.0909768342971802	0.0210140235722065	nan	nan	nan	nan	nan	nan	6.063298158638569e-15	9.962166786193851	-94.89926910400393	nan	nan	nan	nan	nan	nan	-79.86541748046878	21.23284912109376	274.4954528808595	nan	nan	nan	123.7087936401368	86.13531494140628	-633.4002685546877	nan	nan	nan	nan	nan	nan	nan	nan	nan	nan	nan	nan	42.54225540161134	-6.352493762969974	15.46492004394532	6.688307762146	-3.068948268890383	12.51353836059571	11.40304279327393	0.3522409796714784	-21.51338577270509	5.74245595932007	0.1364180594682694	-26.91707801818849	1.827433466911317	8.052817933116298e-16	1.711504459381104	2.181079864501954	-1.397400651545782e-15	2.269248485565186	733.9272460937502	990.527465820313	275.879852294922	733.9272460937502	0	275.879852294922	
202	2.01	760.3567504882815	904.9237670898442	280.5448303222657	889.0748901367192	911.3220825195317	263.6551208496095	743.5745239257815	902.3716430664067	151.6790313720704	753.6816406250002	1034.720092773438	278.8435668945314	728.401306152344	494.6968688964846	159.8708496093751	1135.958251953125	463.4402770996096	220.4877777099611	792.6184082031255	546.881530761719	-244.9833984375001	751.3696899414065	903.4191284179692	216.1972656250001	420.065124511719	217.1239166259767	175.6869201660157	678.7017822265627	-73.61302185058597	115.3896255493165	368.6763000488282	252.0521545410157	-213.1522521972657	712.5080566406252	480.3894653320315	160.6860656738282	427.8331298828127	84.5104675292969	176.7009582519532	609.0159912109377	111.7961044311524	147.5079803466797	401.4044494628909	64.67051696777347	-5.869232177734377	397.8621215820315	266.9545288085939	161.2132873535157	878.4453125000005	505.4212341308596	322.8438110351564	1230.6591796875	611.9368896484377	128.4319000244141	685.4726562500002	473.1149902343752	-44.46270751953126	769.3437500000005	906.4287109375005	344.8923645019532	837.9166870117192	81.39964294433597	329.9821777343751	1203.620849609375	43.6007766723633	161.0324707031251	669.123718261719	91.34483337402347	-37.60784912109376	876.4094848632817	484.1212158203127	323.2024230957032	972.4531250000005	70.10063171386722	344.3282775878907	972.4960327148442	259.1576538085939	329.689910888672	973.986938476563	55.46239852905276	155.2774200439454	782.8364257812505	70.025016784668	342.7957153320314	437.8235168457034	23.69577789306641	181.863510131836	498.2178039550784	32.79101181030275	172.1324920654297	429.0139465332034	17.08246612548829	121.0067901611329	427.8331604003909	84.51048278808597	176.7009582519532	1035.658569335938	70.12583923339847	344.8391113281251	1035.6728515625	133.1448364257813	339.9595642089845	1036.169921875	65.24633789062503	281.8221740722657	972.4530639648442	70.10063934326175	344.3281860351564	740.5239868164065	1621.713989257813	305.4190979003907	956.163696289063	1550.225952148438	290.1912536621095	730.358093261719	1639.355834960938	78.64088439941409	812.9055175781255	1837.169677734376	318.9354553222657	717.7156982421877	1385.454467773438	103.1232833862305	915.180297851563	1374.220947265625	8.835716247558597	713.3878173828127	1601.733520507813	68.29170989990237	812.571411132813	1418.707641601563	297.8159179687501	742.306335449219	1364.096801757813	496.5937805175784	948.4445190429692	1344.033081054688	563.948425292969	740.8833007812502	1154.222412109375	438.431335449219	812.5713500976567	1418.707641601563	297.8158569335939	812.5714721679692	1418.707641601563	297.815887451172	1029.8876953125	1399.468139648438	286.7038879394532	822.8644409179692	1409.066040039063	515.809020996094	792.881713867188	1201.3212890625	289.1307983398439	658.8803710937502	1103.739379882813	50.83407974243167	372.9463500976564	1164.898071289063	43.06367492675783	640.4636230468752	1054.187744140625	338.5223388671876	717.7156372070315	1385.454345703125	103.1232910156251	767.349060058594	850.9758911132817	14.24165630340577	530.384704589844	753.903747558594	-17.6477394104004	751.1013793945315	807.2603149414067	268.0466613769532	666.4732055664065	1086.046020507813	48.27261734008792	820.6764526367192	701.0513305664065	-27.48334312438966	873.402465820313	759.9556884765627	-171.7483673095704	674.258239746094	667.658630371094	-94.63075256347659	767.3489990234377	850.9758911132817	14.24166679382325	661.4323730468752	1087.93115234375	545.631530761719	388.3643493652346	1177.113037109375	597.5276489257815	725.5105590820315	1119.425537109375	828.677124023438	742.3063964843752	1364.0966796875	496.5937500000002	741.2454223632815	825.0575561523442	556.812683105469	503.0766906738284	755.368591308594	618.485534667969	797.3754272460942	852.6454467773442	804.7497558593755	667.0192871093752	1069.530029296875	546.4141845703127	763.428161621094	667.0823974609377	565.7036743164065	849.532592773438	686.6670532226565	698.8568115234377	896.1731567382817	680.7777099609377	477.8487854003909	741.2454833984377	825.0576171875005	556.812683105469	944.4657592773442	1631.655273437501	233.0781097412111	942.2858886718755	1620.945922851563	360.2869567871095	809.534057617188	1667.940673828126	377.2486267089845	716.570007324219	1442.705322265625	93.90305328369143	709.1547851562502	1277.076904296875	40.34148025512697	680.3178710937502	1106.27197265625	13.06811237335206	717.6005859375002	982.5961303710942	-13.16742706298829	802.7786254882817	865.382934570313	25.10529899597169	736.761169433594	840.832885742188	-9.046709060668949	802.1901245117192	785.0026245117192	-28.46864891052248	742.6853027343752	1419.988891601563	512.0831298828127	717.0566406250002	1204.148071289063	569.380554199219	688.6846313476565	1085.960693359375	579.479431152344	748.7424926757815	950.756713867188	582.925231933594	777.4533691406255	828.8278198242192	541.2014160156252	712.384216308594	824.380249023438	583.933044433594	765.870056152344	749.1406250000002	582.052917480469	757.5635375976565	728.6269531250002	84.42293548583987	737.8032836914065	502.3371887207034	100.5962448120118	579.8090820312502	375.655731201172	96.4893417358399	414.1924438476565	221.1154785156251	131.2506866455079	407.559265136719	75.41094970703128	188.7336425781251	906.4984741210942	510.1176452636721	376.2405700683595	882.0531616210942	260.8430786132814	385.3724365234377	856.6892700195317	80.29356384277347	370.8645019531251	789.755493164063	1005.037109375	164.6564483642579	374.6649169921876	257.9943847656251	179.5589599609376	794.7282104492192	1678.310302734376	236.0651092529298	884.442016601563	658.5222167968752	417.5899963378909	791.533569335938	44.46559143066408	325.9754638671876	993.0820312500005	45.33089065551759	331.0953369140626	859.4550170898442	1245.363891601563	286.2055053710939	817.9371948242192	1009.322814941407	381.0555114746095	819.5350952148442	1418.091064453125	297.4598083496095	625.2705688476565	994.974731445313	371.4801635742189	684.3679809570315	1500.164794921875	305.7421264648439	609.0183715820315	1000.988525390625	235.7692413330079	593.0884399414065	1329.028198242188	351.8309020996095	604.7630004882815	1234.748291015625	299.4918212890626	-9.307905197143558	15.95695400238038	-5.000752449035646	13.71959209442139	-9.411413192749027	44.12204360961915	0	0	-32.72716903686525	-2.392312049865724	10.99558258056641	-33.41848754882814	2.154675960540772	20.43193054199219	12.66328239440919	6.11871433258057	-2.496689796447755	20.18514633178712	5.993736267089846	-25.1183547973633	6.047698974609379	0	0	5.473948478698732	-0.7499541044235232	-7.466870307922367	-2.943989753723145	0.7499541044235232	7.466870307922367	-2.943989753723145	9.084696769714359	4.788329601287844	-9.328945159912113	-4.427628517150881	-0.463074326515198	-90.02285003662112	1.918771505355836	-0.03304387629032136	13.28921699523926	-1.918771505355836	0.03304387629032136	13.28921699523926	3.414298534393312	4.895170211791994	7.9679388999939	-3.414298534393312	-4.895170211791994	7.9679388999939	8.405996322631839	5.641380786895754	-6.09527158737183	1.590277359294756e-15	-3.877891497500176e-12	34.68668746948244	6.631496429443363	108.2475814819337	-4.416813373565676	11.56166172027588	9.373331069946293	-11.58579158782959	3.97569339823689e-16	1.005055305473846e-12	33.8074417114258	-1.274470686912537	109.9762573242188	-8.83641338348389	-2.27853274345398	2.918085575103761	5.175468921661379	2.27853274345398	-2.918085575103761	5.175468921661379	-3.403253555297853	3.84158515930176	-18.56958007812501	3.403253555297853	-3.84158515930176	-18.56958007812501	0	0.5612544417381289	0	0	-0.2427912950515748	0	0	0.3503645658493043	0	nan	nan	nan	nan	nan	nan	nan	nan	nan	nan	nan	nan	nan	nan	nan	nan	nan	nan	nan	nan	nan	0	-0.009173060767352584	0	0	-0.02219889126718045	0	0	-0.03625969216227533	0	0	0.007659707218408588	0	0	-0.001224363688379527	0	0	0.001991655211895705	0	nan	nan	nan	nan	nan	nan	nan	nan	nan	nan	nan	nan	0.05391458049416545	-0.1079953163862229	-0.2036723792552949	nan	nan	nan	nan	nan	nan	0.04471439495682718	0.5312700271606448	-0.1174988076090813	nan	nan	nan	0.2976330220699311	1.424532175064087	0.1077382639050484	nan	nan	nan	nan	nan	nan	nan	nan	nan	nan	nan	nan	-0.1304522454738617	0.5433753728866579	0.2425979673862458	0.0107649015262723	0.6485617160797121	0.2453192770481111	-0.07154566794633868	0.2600089311599733	-0.09124183654785159	0.01020357944071293	0.3084881603717805	-0.106940120458603	-0.02219175174832345	0.0737474784255028	0.03525554388761522	0.02438677661120893	0.09394551068544393	0.01770815625786782	nan	nan	nan	nan	nan	nan	1.515824539659642e-15	23.73305320739747	-56.1495170593262	nan	nan	nan	nan	nan	nan	-13.17767524719239	27.53738212585451	82.73764801025393	nan	nan	nan	139.6527862548829	33.09926605224611	-171.976547241211	nan	nan	nan	nan	nan	nan	nan	nan	nan	nan	nan	nan	42.67111206054689	-7.272416591644291	15.32180976867676	5.096184730529787	-2.533413648605348	17.47263526916505	13.34300041198731	0.3902958333492281	-23.58292198181153	4.725375652313234	0.1152971684932709	-25.30833816528322	1.878140091896058	9.473903372872764e-17	2.108311414718629	1.977445363998414	-1.136868351805172e-15	1.899101376533509	746.9075927734377	992.1056518554692	276.2813415527345	746.9075927734377	0	276.2813415527345	
